<svg xmlns="http://www.w3.org/2000/svg" viewBox="0 0 900 580" width="900" font-family="-apple-system, BlinkMacSystemFont, 'Segoe UI', Roboto, sans-serif">
  <defs>
    <marker id="ovFlow" viewBox="0 0 10 10" refX="8" refY="5" markerWidth="7" markerHeight="7" orient="auto-start-reverse">
      <path d="M0 0 L10 5 L0 10 z" fill="#D97757"/>
    </marker>
    <marker id="ovDel" viewBox="0 0 10 10" refX="8" refY="5" markerWidth="6" markerHeight="6" orient="auto-start-reverse">
      <path d="M0 0 L10 5 L0 10 z" fill="#C9B7AD"/>
    </marker>
  </defs>

  <!-- card -->
  <rect x="2" y="2" width="896" height="576" rx="14" fill="#FAF9F7" stroke="#E7E2DC"/>

  <!-- title -->
  <text x="40" y="44" font-size="23" font-weight="700" fill="#1A1A1A">The ccsk System</text>
  <text x="40" y="68" font-size="14" fill="#6B7280">One self-learning rhythm — enter through <tspan font-family="ui-monospace, SFMono-Regular, Menlo, monospace" fill="#B4502F">/ccsk:</tspan>, delegate to 12 specialists, remember in <tspan font-family="ui-monospace, SFMono-Regular, Menlo, monospace" fill="#B4502F">.ccsk/</tspan>.</text>

  <!-- ============ BAND 1 · ENTER ============ -->
  <text x="40" y="92" font-size="11" font-weight="700" fill="#9AA0A6">ENTER · the <tspan font-family="ui-monospace, SFMono-Regular, Menlo, monospace" fill="#9AA0A6">/ccsk:</tspan> doors</text>

  <g>
    <rect x="40" y="100" width="156" height="46" rx="10" fill="#FFFFFF" stroke="#E7E2DC"/>
    <text x="118" y="123" text-anchor="middle" font-size="12.5" font-weight="700" fill="#B4502F" font-family="ui-monospace, SFMono-Regular, Menlo, monospace">/ccsk:plan</text>
    <text x="118" y="138" text-anchor="middle" font-size="10.5" fill="#6B7280">Frame the work</text>

    <rect x="206" y="100" width="156" height="46" rx="10" fill="#FFFFFF" stroke="#E7E2DC"/>
    <text x="284" y="123" text-anchor="middle" font-size="12.5" font-weight="700" fill="#B4502F" font-family="ui-monospace, SFMono-Regular, Menlo, monospace">/ccsk:execute</text>
    <text x="284" y="138" text-anchor="middle" font-size="10.5" fill="#6B7280">Forge → Sign-off</text>

    <rect x="372" y="100" width="156" height="46" rx="10" fill="#FFFFFF" stroke="#E7E2DC"/>
    <text x="450" y="123" text-anchor="middle" font-size="12.5" font-weight="700" fill="#B4502F" font-family="ui-monospace, SFMono-Regular, Menlo, monospace">/ccsk:loop</text>
    <text x="450" y="138" text-anchor="middle" font-size="10.5" fill="#6B7280">autonomous ⟳</text>

    <rect x="538" y="100" width="156" height="46" rx="10" fill="#FFFFFF" stroke="#E7E2DC"/>
    <text x="616" y="123" text-anchor="middle" font-size="12.5" font-weight="700" fill="#B4502F" font-family="ui-monospace, SFMono-Regular, Menlo, monospace">/ccsk:guide</text>
    <text x="616" y="138" text-anchor="middle" font-size="10.5" fill="#6B7280">learn the cadence</text>

    <rect x="704" y="100" width="156" height="46" rx="10" fill="#FFFFFF" stroke="#3F7D9B"/>
    <text x="782" y="123" text-anchor="middle" font-size="12.5" font-weight="700" fill="#B4502F" font-family="ui-monospace, SFMono-Regular, Menlo, monospace">/ccsk:rehydrate</text>
    <text x="782" y="138" text-anchor="middle" font-size="10.5" fill="#6B7280">restore context</text>
  </g>

  <!-- iterate arc above the cadence -->
  <path d="M555 182 C555 152 345 152 345 180" fill="none" stroke="#D97757" stroke-width="2" stroke-dasharray="5 4" marker-end="url(#ovFlow)"/>
  <text x="450" y="177" text-anchor="middle" font-size="12.5" fill="#D97757" font-weight="600">⟳ iterate</text>

  <!-- ============ BAND 2 · RUN (the cadence) ============ -->
  <text x="40" y="176" font-size="11" font-weight="700" fill="#9AA0A6">RUN</text>

  <rect x="40" y="182" width="190" height="76" rx="10" fill="#FFFFFF" stroke="#E7E2DC"/>
  <text x="135" y="214" text-anchor="middle" font-size="16" font-weight="700" fill="#1A1A1A">Frame</text>
  <text x="135" y="234" text-anchor="middle" font-size="11.5" fill="#6B7280">understand &amp; plan</text>

  <rect x="250" y="182" width="190" height="76" rx="10" fill="#FFFFFF" stroke="#E7E2DC"/>
  <text x="345" y="214" text-anchor="middle" font-size="16" font-weight="700" fill="#1A1A1A">Forge</text>
  <text x="345" y="234" text-anchor="middle" font-size="11.5" fill="#6B7280">implement a slice</text>

  <rect x="460" y="182" width="190" height="76" rx="10" fill="#FFFFFF" stroke="#E7E2DC"/>
  <text x="555" y="214" text-anchor="middle" font-size="16" font-weight="700" fill="#1A1A1A">Prove</text>
  <text x="555" y="234" text-anchor="middle" font-size="11.5" fill="#6B7280">test &amp; review</text>

  <rect x="670" y="182" width="190" height="76" rx="10" fill="#1A1A1A"/>
  <text x="765" y="214" text-anchor="middle" font-size="16" font-weight="700" fill="#FFFFFF">Sign-off</text>
  <text x="765" y="234" text-anchor="middle" font-size="11.5" fill="#E7C9BB">evidence · commit</text>

  <!-- cadence forward arrows -->
  <g stroke="#D97757" stroke-width="2">
    <line x1="232" y1="220" x2="246" y2="220" marker-end="url(#ovFlow)"/>
    <line x1="442" y1="220" x2="456" y2="220" marker-end="url(#ovFlow)"/>
    <line x1="652" y1="220" x2="666" y2="220" marker-end="url(#ovFlow)"/>
  </g>

  <!-- delegation ticks: each beat → the specialists panel -->
  <g stroke="#C9B7AD" stroke-width="1.5">
    <line x1="135" y1="260" x2="135" y2="282" marker-end="url(#ovDel)"/>
    <line x1="345" y1="260" x2="345" y2="282" marker-end="url(#ovDel)"/>
    <line x1="555" y1="260" x2="555" y2="282" marker-end="url(#ovDel)"/>
    <line x1="765" y1="260" x2="765" y2="282" marker-end="url(#ovDel)"/>
  </g>

  <!-- ============ BAND 3 · DELEGATE (12 specialists) ============ -->
  <text x="40" y="278" font-size="11" font-weight="700" fill="#9AA0A6">DELEGATE · 12 specialists, one at a time</text>

  <rect x="40" y="286" width="820" height="150" rx="10" fill="#FFFFFF" stroke="#E7E2DC"/>
  <g stroke="#E7E2DC" stroke-width="1">
    <line x1="240" y1="296" x2="240" y2="426"/>
    <line x1="450" y1="296" x2="450" y2="426"/>
    <line x1="660" y1="296" x2="660" y2="426"/>
  </g>

  <!-- column headers -->
  <g font-size="10.5" font-weight="700" fill="#B4502F" text-anchor="middle">
    <text x="140" y="312">FRAME</text>
    <text x="345" y="312">FORGE</text>
    <text x="555" y="312">PROVE</text>
    <text x="760" y="312">SIGN-OFF</text>
  </g>

  <!-- agent rows: dot colour = role -->
  <g font-size="11" font-weight="600" fill="#1A1A1A">
    <!-- Frame -->
    <circle cx="56" cy="335" r="4" fill="#3F9B6B"/><text x="70" y="339">planner</text>
    <circle cx="56" cy="359" r="4" fill="#3F7D9B"/><text x="70" y="363">researcher</text>
    <circle cx="56" cy="383" r="4" fill="#3F7D9B"/><text x="70" y="387">brainstormer</text>
    <circle cx="56" cy="407" r="4" fill="#3F9B6B"/><text x="70" y="411">designer</text>
    <!-- Forge -->
    <circle cx="256" cy="335" r="4" fill="#B4502F"/><text x="270" y="339">executor</text>
    <circle cx="256" cy="359" r="4" fill="#B4502F"/><text x="270" y="363">code-simplifier</text>
    <!-- Prove -->
    <circle cx="466" cy="335" r="4" fill="#B4502F"/><text x="480" y="339">tester</text>
    <circle cx="466" cy="359" r="4" fill="#B4502F"/><text x="480" y="363">debugger</text>
    <circle cx="466" cy="383" r="4" fill="#3F7D9B"/><text x="480" y="387">code-reviewer</text>
    <!-- Sign-off -->
    <circle cx="676" cy="335" r="4" fill="#3F9B6B"/><text x="690" y="339">docs-manager</text>
    <circle cx="676" cy="359" r="4" fill="#3F9B6B"/><text x="690" y="363">journal-writer</text>
    <circle cx="676" cy="383" r="4" fill="#3F7D9B"/><text x="690" y="387">git-manager</text>
  </g>

  <!-- legend -->
  <g font-size="10" fill="#6B7280">
    <circle cx="70" cy="421" r="4" fill="#B4502F"/><text x="82" y="424">writes code</text>
    <circle cx="186" cy="421" r="4" fill="#3F9B6B"/><text x="198" y="424">writes docs/memory</text>
    <circle cx="340" cy="421" r="4" fill="#3F7D9B"/><text x="352" y="424">read-only</text>
    <text x="448" y="424" fill="#9AA0A6">every agent inherits your session model · least-privilege tools</text>
  </g>

  <!-- Sign-off persists into memory -->
  <line x1="760" y1="436" x2="760" y2="450" stroke="#D97757" stroke-width="2" marker-end="url(#ovFlow)"/>

  <!-- ============ BAND 4 · REMEMBER (.ccsk/) ============ -->
  <text x="40" y="446" font-size="11" font-weight="700" fill="#9AA0A6">REMEMBER</text>

  <rect x="40" y="452" width="820" height="84" rx="10" fill="#F6E5DD" stroke="#E7C9BB"/>
  <text x="60" y="482" font-size="14" font-weight="700" fill="#B4502F" font-family="ui-monospace, SFMono-Regular, Menlo, monospace">.ccsk/</text>
  <text x="60" y="503" font-size="11" fill="#6B7280">durable, local-first memory —</text>
  <text x="60" y="519" font-size="11" fill="#6B7280">gitignored by default; it compounds.</text>
  <g text-anchor="middle">
    <text x="560" y="480" font-size="12" font-weight="600" fill="#1A1A1A">01-PLAN.md · journals · ADRs · retros · milestones · MEMORY.md</text>
    <text x="560" y="502" font-size="10.5" fill="#9AA0A6">single source of truth = 01-PLAN.md · MEMORY.md stays capped &amp; pointer-based</text>
    <text x="560" y="520" font-size="10.5" fill="#9AA0A6">no hooks · pull-based · written at the Sign-off gate</text>
  </g>

  <!-- compounding return arc: memory → next session → rehydrate -->
  <path d="M860 480 C888 480 888 123 860 123" fill="none" stroke="#D97757" stroke-width="2" stroke-dasharray="5 4" marker-end="url(#ovFlow)"/>
  <text x="881" y="300" text-anchor="middle" font-size="11" font-weight="600" fill="#D97757" transform="rotate(90 881 300)">⟳ next session — rehydrate &amp; reconcile</text>

  <!-- footer -->
  <text x="450" y="562" text-anchor="middle" font-size="12" fill="#9AA0A6">enter → run the cadence → delegate → remember — and every session compounds.</text>
</svg>
